<?xml version="1.0" encoding="UTF-8" standalone="no"?>
<!-- Created with Inkscape (http://www.inkscape.org/) -->
<svg
   xmlns:dc="http://purl.org/dc/elements/1.1/"
   xmlns:cc="http://web.resource.org/cc/"
   xmlns:rdf="http://www.w3.org/1999/02/22-rdf-syntax-ns#"
   xmlns:svg="http://www.w3.org/2000/svg"
   xmlns="http://www.w3.org/2000/svg"
   xmlns:xlink="http://www.w3.org/1999/xlink"
   xmlns:sodipodi="http://sodipodi.sourceforge.net/DTD/sodipodi-0.dtd"
   xmlns:inkscape="http://www.inkscape.org/namespaces/inkscape"
   width="160"
   height="64"
   id="svg2"
   sodipodi:version="0.32"
   inkscape:version="0.45.1"
   sodipodi:docbase="/home/err/Projects/doomfontgen/res"
   sodipodi:docname="logo.svg"
   inkscape:output_extension="org.inkscape.output.svg.inkscape"
   inkscape:export-filename="/home/err/Projects/doomfontgen/res/logo.png"
   inkscape:export-xdpi="90"
   inkscape:export-ydpi="90"
   version="1.0">
  <defs
     id="defs4">
    <linearGradient
       id="linearGradient3198">
      <stop
         style="stop-color:#ffffff;stop-opacity:1;"
         offset="0"
         id="stop3200" />
      <stop
         style="stop-color:#ffffff;stop-opacity:0;"
         offset="1"
         id="stop3202" />
    </linearGradient>
    <filter
       inkscape:collect="always"
       x="-0.028935082"
       width="1.0578701"
       y="-0.14071539"
       height="1.2814308"
       id="filter3828">
      <feGaussianBlur
         inkscape:collect="always"
         stdDeviation="1.3914308"
         id="feGaussianBlur3830" />
    </filter>
    <linearGradient
       inkscape:collect="always"
       xlink:href="#linearGradient3198"
       id="linearGradient3188"
       gradientUnits="userSpaceOnUse"
       gradientTransform="matrix(1.3097669,0,0,0.7431644,-213.31809,192.43888)"
       x1="448.1113"
       y1="282.89816"
       x2="448.1113"
       y2="318.92587" />
  </defs>
  <sodipodi:namedview
     id="base"
     pagecolor="#ffffff"
     bordercolor="#666666"
     borderopacity="1.0"
     gridtolerance="10000"
     guidetolerance="10"
     objecttolerance="10"
     inkscape:pageopacity="0.0"
     inkscape:pageshadow="2"
     inkscape:zoom="1"
     inkscape:cx="65.166666"
     inkscape:cy="65.592974"
     inkscape:document-units="px"
     inkscape:current-layer="layer1"
     showgrid="false"
     gridempspacing="4"
     inkscape:grid-points="false"
     inkscape:grid-bbox="true"
     inkscape:window-width="872"
     inkscape:window-height="624"
     inkscape:window-x="110"
     inkscape:window-y="48"
     width="160px"
     height="64px" />
  <metadata
     id="metadata7">
    <rdf:RDF>
      <cc:Work
         rdf:about="">
        <dc:format>image/svg+xml</dc:format>
        <dc:type
           rdf:resource="http://purl.org/dc/dcmitype/StillImage" />
      </cc:Work>
    </rdf:RDF>
  </metadata>
  <g
     inkscape:label="Layer 1"
     inkscape:groupmode="layer"
     id="layer1">
    <g
       id="g3184"
       transform="translate(-296.38307,-380.64192)"
       inkscape:export-filename="/home/err/Documents/doomcrap/vfont/logo.png"
       inkscape:export-xdpi="90"
       inkscape:export-ydpi="90">
      <path
         inkscape:export-ydpi="90"
         inkscape:export-xdpi="90"
         inkscape:export-filename="/home/err/Documents/doomcrap/vfont/logo.png"
         transform="matrix(1.3097669,0,0,1.0398818,-212.00833,111.02155)"
         d="M 390.875,277.90625 C 390.74961,277.90626 390.6875,277.99767 390.6875,278.1875 L 390.6875,280.21875 C 390.6875,280.39401 390.74961,280.46876 390.875,280.46875 L 394.875,280.46875 L 390.71875,290.28125 C 390.71215,290.32506 390.7007,290.36244 390.6875,290.40625 L 390.6875,292.65625 C 390.6875,292.84611 390.74961,292.9375 390.875,292.9375 L 400.40625,292.9375 C 400.53822,292.9375 400.59375,292.84612 400.59375,292.65625 L 400.59375,290.625 C 400.59374,290.43514 400.53823,290.34378 400.40625,290.34375 L 396.34375,290.34375 L 400.5625,280.5625 L 400.59375,280.40625 L 400.59375,278.1875 C 400.59374,277.99766 400.53823,277.90625 400.40625,277.90625 L 390.875,277.90625 z M 401.5625,277.90625 C 401.43712,277.90626 401.375,277.99767 401.375,278.1875 L 401.375,292.65625 C 401.375,292.84611 401.43711,292.9375 401.5625,292.9375 L 409.8125,292.9375 C 410.78256,292.9375 411.57376,292.19583 412.1875,290.75 C 412.78801,289.348 413.09375,287.5677 413.09375,285.40625 C 413.09374,283.21563 412.788,281.43325 412.1875,280.03125 C 411.58697,278.61465 410.79575,277.90625 409.8125,277.90625 L 401.5625,277.90625 z M 416.6875,277.90625 C 415.70423,277.90626 414.91301,278.61464 414.3125,280.03125 C 413.71199,281.43326 413.43751,283.21564 413.4375,285.40625 C 413.4375,287.55308 413.73664,289.35005 414.34375,290.78125 C 414.95746,292.21246 415.72402,292.9375 416.6875,292.9375 L 422.0625,292.9375 C 423.03256,292.9375 423.79914,292.21247 424.40625,290.78125 C 425.01336,289.35004 425.34376,287.55309 425.34375,285.40625 C 425.34375,283.21563 425.038,281.43325 424.4375,280.03125 C 423.83698,278.61465 423.04576,277.90625 422.0625,277.90625 L 416.6875,277.90625 z M 429.75,277.90625 C 428.76674,277.90626 427.9755,278.61464 427.375,280.03125 C 426.77448,281.43326 426.46875,283.21564 426.46875,285.40625 C 426.46875,287.55308 426.76789,289.35005 427.375,290.78125 C 427.98871,292.21246 428.78654,292.9375 429.75,292.9375 L 435.09375,292.9375 C 436.06381,292.9375 436.86162,292.21247 437.46875,290.78125 C 438.07585,289.35004 438.375,287.55309 438.375,285.40625 C 438.37499,283.21563 438.06925,281.43325 437.46875,280.03125 C 436.86822,278.61465 436.07701,277.90625 435.09375,277.90625 L 429.75,277.90625 z M 439.09375,277.90625 C 438.96837,277.90626 438.90626,277.99767 438.90625,278.1875 L 438.90625,292.65625 C 438.90625,292.84611 438.96838,292.9375 439.09375,292.9375 L 440.53125,292.9375 C 440.65663,292.9375 440.71875,292.84612 440.71875,292.65625 L 440.71875,286.78125 L 444.34375,292.84375 C 444.38334,292.90217 444.4472,292.9375 444.5,292.9375 C 445.00152,292.9375 445.27291,292.88552 445.3125,292.8125 L 448.53125,286.78125 L 448.53125,292.65625 C 448.53124,292.84611 448.59335,292.9375 448.71875,292.9375 L 452.46875,292.9375 C 452.59412,292.9375 452.65622,292.84612 452.65625,292.65625 L 452.65625,278.1875 C 452.65623,277.99766 452.59411,277.90625 452.46875,277.90625 L 451.09375,277.90625 C 451.03435,277.90626 451.00835,277.92701 450.96875,278 L 445.6875,287.6875 L 440.78125,278 C 440.74165,277.927 440.71563,277.90625 440.65625,277.90625 L 439.09375,277.90625 z M 461.4375,277.90625 C 460.50703,277.90626 459.75678,278.56266 459.15625,279.90625 C 458.55574,281.24984 458.25,282.97206 458.25,285.03125 L 458.25,292.65625 C 458.25,292.84611 458.31211,292.9375 458.4375,292.9375 L 462.40625,292.9375 C 462.53163,292.9375 462.59375,292.84612 462.59375,292.65625 L 462.59375,283.9375 C 462.59375,282.75455 462.65586,281.90485 462.78125,281.4375 C 462.95283,280.79493 463.26827,280.46876 463.75,280.46875 L 468.5,280.46875 C 468.62538,280.46877 468.6875,280.39402 468.6875,280.21875 L 468.6875,278.1875 C 468.6875,277.99766 468.62539,277.90625 468.5,277.90625 L 461.4375,277.90625 z M 472.59375,277.90625 C 471.61048,277.90626 470.81928,278.61464 470.21875,280.03125 C 469.61824,281.43326 469.31249,283.21564 469.3125,285.40625 C 469.3125,287.55308 469.61163,289.35005 470.21875,290.78125 C 470.83246,292.21246 471.63029,292.9375 472.59375,292.9375 L 477.9375,292.9375 C 478.90755,292.9375 479.70538,292.21247 480.3125,290.78125 C 480.91961,289.35004 481.21874,287.55309 481.21875,285.40625 C 481.21874,283.21563 480.91299,281.43325 480.3125,280.03125 C 479.71197,278.61465 478.92074,277.90625 477.9375,277.90625 L 472.59375,277.90625 z M 481.9375,277.90625 C 481.80552,277.90626 481.71875,277.99767 481.71875,278.1875 L 481.71875,292.65625 C 481.71875,292.84611 481.80552,292.9375 481.9375,292.9375 L 483.375,292.9375 C 483.50038,292.9375 483.5625,292.84612 483.5625,292.65625 L 483.5625,286.5625 L 491.96875,292.59375 C 492.2723,292.81281 492.49786,292.9375 492.65625,292.9375 L 494.34375,292.9375 C 494.46911,292.9375 494.53124,292.84612 494.53125,292.65625 L 494.53125,278.1875 C 494.53123,277.99766 494.4691,277.90625 494.34375,277.90625 L 492.90625,277.90625 C 492.77425,277.90626 492.6875,277.99767 492.6875,278.1875 L 492.6875,284.375 L 484.125,278.1875 C 483.86103,277.99766 483.66324,277.90625 483.53125,277.90625 L 481.9375,277.90625 z M 495.3125,277.90625 C 495.18712,277.90626 495.12501,277.99767 495.125,278.1875 L 495.125,280.21875 C 495.125,280.39401 495.18713,280.46876 495.3125,280.46875 L 498.21875,280.46875 L 498.21875,292.65625 C 498.21874,292.84611 498.28087,292.9375 498.40625,292.9375 L 502.15625,292.9375 C 502.28163,292.9375 502.34376,292.84612 502.34375,292.65625 L 502.34375,280.46875 L 505.34375,280.46875 C 505.46912,280.46877 505.53124,280.39402 505.53125,280.21875 L 505.53125,278.1875 C 505.53123,277.99766 505.46913,277.90625 505.34375,277.90625 L 495.3125,277.90625 z M 405.5,280.46875 L 407.5,280.46875 C 407.98173,280.46877 408.30375,280.79494 408.46875,281.4375 C 408.59412,281.90484 408.65622,282.75455 408.65625,283.9375 L 408.65625,286.3125 C 408.65623,287.53927 408.61877,288.44708 408.5,289.03125 C 408.32842,289.90751 407.98174,290.34378 407.5,290.34375 L 405.5,290.34375 L 405.5,280.46875 z M 418.84375,280.46875 L 419.75,280.46875 C 420.23172,280.46877 420.54717,280.79494 420.71875,281.4375 C 420.84413,281.90484 420.90624,282.75455 420.90625,283.9375 L 420.90625,286.3125 C 420.90625,287.55386 420.86879,288.46169 420.75,289.03125 C 420.57182,289.90751 420.23171,290.34378 419.75,290.34375 L 418.84375,290.34375 C 418.38841,290.34377 418.07122,289.87422 417.90625,288.96875 C 417.80066,288.39919 417.75,287.52467 417.75,286.3125 L 417.75,283.9375 C 417.75,282.79837 417.79407,281.96737 417.90625,281.5 C 418.06462,280.81362 418.38843,280.46876 418.84375,280.46875 z M 431.875,280.46875 L 432.8125,280.46875 C 433.29422,280.46877 433.60967,280.79494 433.78125,281.4375 C 433.90662,281.90484 433.96874,282.75455 433.96875,283.9375 L 433.96875,286.3125 C 433.96874,287.55386 433.90001,288.46169 433.78125,289.03125 C 433.60306,289.90751 433.29422,290.34378 432.8125,290.34375 L 431.875,290.34375 C 431.41966,290.34377 431.10247,289.87422 430.9375,288.96875 C 430.83191,288.39919 430.78125,287.52467 430.78125,286.3125 L 430.78125,283.9375 C 430.78124,282.79837 430.85657,281.96737 430.96875,281.5 C 431.12712,280.81362 431.41965,280.46876 431.875,280.46875 z M 474.71875,280.46875 L 475.65625,280.46875 C 476.13798,280.46877 476.45341,280.79494 476.625,281.4375 C 476.75038,281.90484 476.81251,282.75455 476.8125,283.9375 L 476.8125,286.3125 C 476.8125,287.55386 476.74378,288.46169 476.625,289.03125 C 476.44682,289.90751 476.13799,290.34378 475.65625,290.34375 L 474.71875,290.34375 C 474.26341,290.34377 473.94623,289.87422 473.78125,288.96875 C 473.67566,288.39919 473.62499,287.52467 473.625,286.3125 L 473.625,283.9375 C 473.625,282.79837 473.7003,281.96737 473.8125,281.5 C 473.97088,280.81362 474.26341,280.46876 474.71875,280.46875 z M 463.5,283.4375 C 463.36802,283.43752 463.31249,283.52891 463.3125,283.71875 L 463.3125,285.75 C 463.3125,285.93986 463.36801,286.06253 463.5,286.0625 L 468.5,286.0625 C 468.62538,286.06252 468.6875,285.93986 468.6875,285.75 L 468.6875,283.71875 C 468.6875,283.5289 468.62539,283.43752 468.5,283.4375 L 463.5,283.4375 z "
         inkscape:href="#text3174"
         id="path2192"
         style="font-size:14.72555923px;font-style:normal;font-weight:normal;text-align:start;text-anchor:start;opacity:0.66000001;fill:#000000;fill-opacity:1;stroke:none;stroke-width:1px;stroke-linecap:butt;stroke-linejoin:miter;stroke-opacity:1;font-family:Sofachrome"
         xlink:href="#text3174"
         inkscape:original="M 390.875 277.90625 C 390.74961 277.90626 390.6875 277.99767 390.6875 278.1875 L 390.6875 280.21875 C 390.6875 280.39401 390.74961 280.46876 390.875 280.46875 L 394.875 280.46875 L 390.71875 290.28125 C 390.71215 290.32506 390.7007 290.36244 390.6875 290.40625 L 390.6875 292.65625 C 390.6875 292.84611 390.74961 292.9375 390.875 292.9375 L 400.40625 292.9375 C 400.53822 292.9375 400.59375 292.84612 400.59375 292.65625 L 400.59375 290.625 C 400.59374 290.43514 400.53823 290.34378 400.40625 290.34375 L 396.34375 290.34375 L 400.5625 280.5625 L 400.59375 280.40625 L 400.59375 278.1875 C 400.59374 277.99766 400.53823 277.90625 400.40625 277.90625 L 390.875 277.90625 z M 401.5625 277.90625 C 401.43712 277.90626 401.375 277.99767 401.375 278.1875 L 401.375 292.65625 C 401.375 292.84611 401.43711 292.9375 401.5625 292.9375 L 409.8125 292.9375 C 410.78256 292.9375 411.57376 292.19583 412.1875 290.75 C 412.78801 289.348 413.09375 287.5677 413.09375 285.40625 C 413.09374 283.21563 412.788 281.43325 412.1875 280.03125 C 411.58697 278.61465 410.79575 277.90625 409.8125 277.90625 L 401.5625 277.90625 z M 416.6875 277.90625 C 415.70423 277.90626 414.91301 278.61464 414.3125 280.03125 C 413.71199 281.43326 413.43751 283.21564 413.4375 285.40625 C 413.4375 287.55308 413.73664 289.35005 414.34375 290.78125 C 414.95746 292.21246 415.72402 292.9375 416.6875 292.9375 L 422.0625 292.9375 C 423.03256 292.9375 423.79914 292.21247 424.40625 290.78125 C 425.01336 289.35004 425.34376 287.55309 425.34375 285.40625 C 425.34375 283.21563 425.038 281.43325 424.4375 280.03125 C 423.83698 278.61465 423.04576 277.90625 422.0625 277.90625 L 416.6875 277.90625 z M 429.75 277.90625 C 428.76674 277.90626 427.9755 278.61464 427.375 280.03125 C 426.77448 281.43326 426.46875 283.21564 426.46875 285.40625 C 426.46875 287.55308 426.76789 289.35005 427.375 290.78125 C 427.98871 292.21246 428.78654 292.9375 429.75 292.9375 L 435.09375 292.9375 C 436.06381 292.9375 436.86162 292.21247 437.46875 290.78125 C 438.07585 289.35004 438.375 287.55309 438.375 285.40625 C 438.37499 283.21563 438.06925 281.43325 437.46875 280.03125 C 436.86822 278.61465 436.07701 277.90625 435.09375 277.90625 L 429.75 277.90625 z M 439.09375 277.90625 C 438.96837 277.90626 438.90626 277.99767 438.90625 278.1875 L 438.90625 292.65625 C 438.90625 292.84611 438.96838 292.9375 439.09375 292.9375 L 440.53125 292.9375 C 440.65663 292.9375 440.71875 292.84612 440.71875 292.65625 L 440.71875 286.78125 L 444.34375 292.84375 C 444.38334 292.90217 444.4472 292.9375 444.5 292.9375 C 445.00152 292.9375 445.27291 292.88552 445.3125 292.8125 L 448.53125 286.78125 L 448.53125 292.65625 C 448.53124 292.84611 448.59335 292.9375 448.71875 292.9375 L 452.46875 292.9375 C 452.59412 292.9375 452.65622 292.84612 452.65625 292.65625 L 452.65625 278.1875 C 452.65623 277.99766 452.59411 277.90625 452.46875 277.90625 L 451.09375 277.90625 C 451.03435 277.90626 451.00835 277.92701 450.96875 278 L 445.6875 287.6875 L 440.78125 278 C 440.74165 277.927 440.71563 277.90625 440.65625 277.90625 L 439.09375 277.90625 z M 461.4375 277.90625 C 460.50703 277.90626 459.75678 278.56266 459.15625 279.90625 C 458.55574 281.24984 458.25 282.97206 458.25 285.03125 L 458.25 292.65625 C 458.25 292.84611 458.31211 292.9375 458.4375 292.9375 L 462.40625 292.9375 C 462.53163 292.9375 462.59375 292.84612 462.59375 292.65625 L 462.59375 283.9375 C 462.59375 282.75455 462.65586 281.90485 462.78125 281.4375 C 462.95283 280.79493 463.26827 280.46876 463.75 280.46875 L 468.5 280.46875 C 468.62538 280.46877 468.6875 280.39402 468.6875 280.21875 L 468.6875 278.1875 C 468.6875 277.99766 468.62539 277.90625 468.5 277.90625 L 461.4375 277.90625 z M 472.59375 277.90625 C 471.61048 277.90626 470.81928 278.61464 470.21875 280.03125 C 469.61824 281.43326 469.31249 283.21564 469.3125 285.40625 C 469.3125 287.55308 469.61163 289.35005 470.21875 290.78125 C 470.83246 292.21246 471.63029 292.9375 472.59375 292.9375 L 477.9375 292.9375 C 478.90755 292.9375 479.70538 292.21247 480.3125 290.78125 C 480.91961 289.35004 481.21874 287.55309 481.21875 285.40625 C 481.21874 283.21563 480.91299 281.43325 480.3125 280.03125 C 479.71197 278.61465 478.92074 277.90625 477.9375 277.90625 L 472.59375 277.90625 z M 481.9375 277.90625 C 481.80552 277.90626 481.71875 277.99767 481.71875 278.1875 L 481.71875 292.65625 C 481.71875 292.84611 481.80552 292.9375 481.9375 292.9375 L 483.375 292.9375 C 483.50038 292.9375 483.5625 292.84612 483.5625 292.65625 L 483.5625 286.5625 L 491.96875 292.59375 C 492.2723 292.81281 492.49786 292.9375 492.65625 292.9375 L 494.34375 292.9375 C 494.46911 292.9375 494.53124 292.84612 494.53125 292.65625 L 494.53125 278.1875 C 494.53123 277.99766 494.4691 277.90625 494.34375 277.90625 L 492.90625 277.90625 C 492.77425 277.90626 492.6875 277.99767 492.6875 278.1875 L 492.6875 284.375 L 484.125 278.1875 C 483.86103 277.99766 483.66324 277.90625 483.53125 277.90625 L 481.9375 277.90625 z M 495.3125 277.90625 C 495.18712 277.90626 495.12501 277.99767 495.125 278.1875 L 495.125 280.21875 C 495.125 280.39401 495.18713 280.46876 495.3125 280.46875 L 498.21875 280.46875 L 498.21875 292.65625 C 498.21874 292.84611 498.28087 292.9375 498.40625 292.9375 L 502.15625 292.9375 C 502.28163 292.9375 502.34376 292.84612 502.34375 292.65625 L 502.34375 280.46875 L 505.34375 280.46875 C 505.46912 280.46877 505.53124 280.39402 505.53125 280.21875 L 505.53125 278.1875 C 505.53123 277.99766 505.46913 277.90625 505.34375 277.90625 L 495.3125 277.90625 z M 405.5 280.46875 L 407.5 280.46875 C 407.98173 280.46877 408.30375 280.79494 408.46875 281.4375 C 408.59412 281.90484 408.65622 282.75455 408.65625 283.9375 L 408.65625 286.3125 C 408.65623 287.53927 408.61877 288.44708 408.5 289.03125 C 408.32842 289.90751 407.98174 290.34378 407.5 290.34375 L 405.5 290.34375 L 405.5 280.46875 z M 418.84375 280.46875 L 419.75 280.46875 C 420.23172 280.46877 420.54717 280.79494 420.71875 281.4375 C 420.84413 281.90484 420.90624 282.75455 420.90625 283.9375 L 420.90625 286.3125 C 420.90625 287.55386 420.86879 288.46169 420.75 289.03125 C 420.57182 289.90751 420.23171 290.34378 419.75 290.34375 L 418.84375 290.34375 C 418.38841 290.34377 418.07122 289.87422 417.90625 288.96875 C 417.80066 288.39919 417.75 287.52467 417.75 286.3125 L 417.75 283.9375 C 417.75 282.79837 417.79407 281.96737 417.90625 281.5 C 418.06462 280.81362 418.38843 280.46876 418.84375 280.46875 z M 431.875 280.46875 L 432.8125 280.46875 C 433.29422 280.46877 433.60967 280.79494 433.78125 281.4375 C 433.90662 281.90484 433.96874 282.75455 433.96875 283.9375 L 433.96875 286.3125 C 433.96874 287.55386 433.90001 288.46169 433.78125 289.03125 C 433.60306 289.90751 433.29422 290.34378 432.8125 290.34375 L 431.875 290.34375 C 431.41966 290.34377 431.10247 289.87422 430.9375 288.96875 C 430.83191 288.39919 430.78125 287.52467 430.78125 286.3125 L 430.78125 283.9375 C 430.78124 282.79837 430.85657 281.96737 430.96875 281.5 C 431.12712 280.81362 431.41965 280.46876 431.875 280.46875 z M 474.71875 280.46875 L 475.65625 280.46875 C 476.13798 280.46877 476.45341 280.79494 476.625 281.4375 C 476.75038 281.90484 476.81251 282.75455 476.8125 283.9375 L 476.8125 286.3125 C 476.8125 287.55386 476.74378 288.46169 476.625 289.03125 C 476.44682 289.90751 476.13799 290.34378 475.65625 290.34375 L 474.71875 290.34375 C 474.26341 290.34377 473.94623 289.87422 473.78125 288.96875 C 473.67566 288.39919 473.62499 287.52467 473.625 286.3125 L 473.625 283.9375 C 473.625 282.79837 473.7003 281.96737 473.8125 281.5 C 473.97088 280.81362 474.26341 280.46876 474.71875 280.46875 z M 463.5 283.4375 C 463.36802 283.43752 463.31249 283.52891 463.3125 283.71875 L 463.3125 285.75 C 463.3125 285.93986 463.36801 286.06253 463.5 286.0625 L 468.5 286.0625 C 468.62538 286.06252 468.6875 285.93986 468.6875 285.75 L 468.6875 283.71875 C 468.6875 283.5289 468.62539 283.43752 468.5 283.4375 L 463.5 283.4375 z "
         inkscape:radius="0"
         sodipodi:type="inkscape:offset" />
      <path
         inkscape:export-ydpi="90"
         inkscape:export-xdpi="90"
         inkscape:export-filename="/home/err/Documents/doomcrap/vfont/logo.png"
         id="path2194"
         d="M 311.37388,414.2938 C 311.37386,414.49123 311.28744,414.58994 311.11459,414.58994 L 298.62941,414.58994 C 298.46518,414.58994 298.38308,414.49123 298.38308,414.2938 L 298.38308,411.97025 C 298.40036,411.92469 298.41333,411.87912 298.42198,411.83357 L 303.86721,401.65091 L 298.62941,401.65091 C 298.46518,401.65093 298.38308,401.55982 298.38308,401.37757 L 298.38308,399.25902 C 298.38308,399.06161 298.46518,398.9629 298.62941,398.96289 L 311.11459,398.96289 C 311.28744,398.9629 311.37386,399.06161 311.37388,399.25902 L 311.37388,401.58258 L 311.33499,401.74204 L 305.78601,411.9019 L 311.11459,411.9019 C 311.28744,411.90192 311.37386,412.00062 311.37388,412.19806 L 311.37388,414.2938 M 327.74021,406.7764 C 327.74019,409.02405 327.34693,410.87681 326.5604,412.33473 C 325.75656,413.83821 324.71938,414.58994 323.44883,414.58994 L 312.63613,414.58994 C 312.4719,414.58994 312.38979,414.49123 312.38979,414.2938 L 312.38979,399.25902 C 312.38979,399.06161 312.4719,398.9629 312.63613,398.96289 L 323.44883,398.96289 C 324.73665,398.9629 325.77385,399.69945 326.5604,401.17254 C 327.34693,402.63047 327.74019,404.49842 327.74021,406.7764 M 321.94491,407.71038 L 321.94491,405.22738 C 321.94489,403.99726 321.86278,403.13922 321.69858,402.65324 C 321.48248,401.98504 321.05897,401.65093 320.42801,401.65091 L 317.79615,401.65091 L 317.79615,411.9019 L 320.42801,411.9019 C 321.05897,411.90192 321.48682,411.44631 321.71154,410.53511 C 321.8671,409.92764 321.94489,408.98608 321.94491,407.71038 M 343.76782,406.7764 C 343.76782,409.00885 343.37022,410.86922 342.57506,412.35751 C 341.77987,413.8458 340.747,414.58994 339.47645,414.58994 L 332.46247,414.58994 C 331.20054,414.58994 330.16768,413.8458 329.36386,412.35751 C 328.56868,410.86922 328.17109,409.00885 328.17109,406.7764 C 328.17109,404.49842 328.56435,402.63047 329.35089,401.17254 C 330.13743,399.69945 331.1746,398.9629 332.46247,398.96289 L 339.47645,398.96289 C 340.76429,398.9629 341.80148,399.69945 342.58802,401.17254 C 343.37455,402.63047 343.76782,404.49842 343.76782,406.7764 M 337.98549,407.71038 L 337.98549,405.22738 C 337.98549,403.99726 337.90338,403.13922 337.73916,402.65324 C 337.51443,401.98504 337.08658,401.65093 336.45564,401.65091 L 335.24991,401.65091 C 334.65352,401.65093 334.2516,402.00782 334.04418,402.72157 C 333.89723,403.20756 333.82377,404.04282 333.82377,405.22738 L 333.82377,407.71038 C 333.82377,408.97089 333.89291,409.89728 334.03121,410.48955 C 334.24728,411.43112 334.65352,411.90192 335.24991,411.9019 L 336.45564,411.9019 C 337.08658,411.90192 337.51876,411.44631 337.75213,410.53511 C 337.9077,409.94283 337.98549,409.00125 337.98549,407.71038 M 360.86018,406.7764 C 360.86017,409.00885 360.46258,410.86922 359.66742,412.35751 C 358.87224,413.8458 357.83937,414.58994 356.56882,414.58994 L 349.55482,414.58994 C 348.2929,414.58994 347.26004,413.8458 346.45622,412.35751 C 345.66104,410.86922 345.26344,409.00885 345.26344,406.7764 C 345.26344,404.49842 345.65671,402.63047 346.44325,401.17254 C 347.22979,399.69945 348.26697,398.9629 349.55482,398.96289 L 356.56882,398.96289 C 357.85666,398.9629 358.89384,399.69945 359.68038,401.17254 C 360.4669,402.63047 360.86017,404.49842 360.86018,406.7764 M 355.07786,407.71038 L 355.07786,405.22738 C 355.07784,403.99726 354.99573,403.13922 354.83153,402.65324 C 354.60678,401.98504 354.17895,401.65093 353.548,401.65091 L 352.34227,401.65091 C 351.74589,401.65093 351.34395,402.00782 351.13653,402.72157 C 350.9896,403.20756 350.91613,404.04282 350.91614,405.22738 L 350.91614,407.71038 C 350.91613,408.97089 350.98528,409.89728 351.12357,410.48955 C 351.33965,411.43112 351.74589,411.90192 352.34227,411.9019 L 353.548,411.9019 C 354.17895,411.90192 354.61111,411.44631 354.8445,410.53511 C 355.00005,409.94283 355.07784,409.00125 355.07786,407.71038 M 379.57398,414.2938 C 379.57396,414.49123 379.49185,414.58994 379.32764,414.58994 L 374.41394,414.58994 C 374.24971,414.58994 374.1676,414.49123 374.16761,414.2938 L 374.16761,408.18877 L 369.92811,414.47604 C 369.87624,414.55198 369.52186,414.58994 368.86498,414.58994 C 368.79583,414.58994 368.73533,414.55958 368.68347,414.49883 L 363.93834,408.18877 L 363.93834,414.2938 C 363.93834,414.49123 363.85623,414.58994 363.69201,414.58994 L 361.8121,414.58994 C 361.64788,414.58994 361.56576,414.49123 361.56576,414.2938 L 361.56576,399.25902 C 361.56576,399.06161 361.64788,398.9629 361.8121,398.96289 L 363.82165,398.96289 C 363.89943,398.9629 363.96426,399.00086 364.01612,399.07678 L 370.43375,409.14552 L 377.33105,399.07678 C 377.38289,399.00086 377.44772,398.9629 377.52551,398.96289 L 379.32764,398.96289 C 379.49185,398.9629 379.57396,399.06161 379.57398,399.25902 L 379.57398,414.2938 M 400.55153,407.14089 C 400.55153,407.33832 400.46942,407.43704 400.30521,407.43702 L 393.75794,407.43702 C 393.58508,407.43704 393.49865,407.33832 393.49865,407.14089 L 393.49865,405.02236 C 393.49865,404.82494 393.58508,404.72622 393.75794,404.7262 L 400.30521,404.7262 C 400.46942,404.72622 400.55153,404.82494 400.55153,405.02236 L 400.55153,407.14089 M 400.55153,401.37757 C 400.55153,401.55982 400.46942,401.65093 400.30521,401.65091 L 394.09504,401.65091 C 393.46407,401.65093 393.03623,401.98504 392.81151,402.65324 C 392.64729,403.13922 392.56518,403.99726 392.56518,405.22738 L 392.56518,414.2938 C 392.56518,414.49123 392.48307,414.58994 392.31885,414.58994 L 387.11993,414.58994 C 386.9557,414.58994 386.87359,414.49123 386.87359,414.2938 L 386.87359,406.36637 C 386.87359,404.22506 387.26687,402.45582 388.0534,401.05864 C 388.83994,399.66148 389.84255,398.9629 391.06125,398.96289 L 400.30521,398.96289 C 400.46942,398.9629 400.55153,399.06161 400.55153,399.25902 L 400.55153,401.37757 M 416.97378,406.7764 C 416.97377,409.00885 416.57617,410.86922 415.78101,412.35751 C 414.98582,413.8458 413.95295,414.58994 412.68241,414.58994 L 405.66842,414.58994 C 404.40649,414.58994 403.37363,413.8458 402.56981,412.35751 C 401.77463,410.86922 401.37704,409.00885 401.37704,406.7764 C 401.37704,404.49842 401.77032,402.63047 402.55684,401.17254 C 403.34338,399.69945 404.38055,398.9629 405.66842,398.96289 L 412.68241,398.96289 C 413.97024,398.9629 415.00743,399.69945 415.79399,401.17254 C 416.5805,402.63047 416.97377,404.49842 416.97378,406.7764 M 411.19144,407.71038 L 411.19144,405.22738 C 411.19144,403.99726 411.10933,403.13922 410.94511,402.65324 C 410.72038,401.98504 410.29254,401.65093 409.66159,401.65091 L 408.45586,401.65091 C 407.85947,401.65093 407.45757,402.00782 407.25013,402.72157 C 407.10318,403.20756 407.02972,404.04282 407.02972,405.22738 L 407.02972,407.71038 C 407.02972,408.97089 407.09886,409.89728 407.23716,410.48955 C 407.45323,411.43112 407.85947,411.90192 408.45586,411.9019 L 409.66159,411.9019 C 410.29254,411.90192 410.72471,411.44631 410.95808,410.53511 C 411.11365,409.94283 411.19144,409.00125 411.19144,407.71038 M 434.39108,414.2938 C 434.39105,414.49123 434.30895,414.58994 434.14475,414.58994 L 431.95369,414.58994 C 431.74623,414.58994 431.44373,414.47604 431.04614,414.24824 L 420.026,407.98376 L 420.026,414.2938 C 420.026,414.49123 419.94389,414.58994 419.77968,414.58994 L 417.89975,414.58994 C 417.72689,414.58994 417.64045,414.49123 417.64045,414.2938 L 417.64045,399.25902 C 417.64045,399.06161 417.72689,398.9629 417.89975,398.96289 L 420.00007,398.96289 C 420.17293,398.9629 420.43222,399.06161 420.77796,399.25902 L 432.00553,405.68298 L 432.00553,399.25902 C 432.00552,399.06161 432.09195,398.9629 432.26484,398.96289 L 434.14475,398.96289 C 434.30895,398.9629 434.39105,399.06161 434.39108,399.25902 L 434.39108,414.2938 M 448.82342,401.37757 C 448.82339,401.55982 448.74128,401.65093 448.57707,401.65091 L 444.63575,401.65091 L 444.63575,414.2938 C 444.63575,414.49123 444.55364,414.58994 444.38942,414.58994 L 439.47573,414.58994 C 439.3115,414.58994 439.2294,414.49123 439.22941,414.2938 L 439.22941,401.65091 L 435.41773,401.65091 C 435.25351,401.65093 435.1714,401.55982 435.1714,401.37757 L 435.1714,399.25902 C 435.1714,399.06161 435.25351,398.9629 435.41773,398.96289 L 448.57707,398.96289 C 448.74128,398.9629 448.82339,399.06161 448.82342,399.25902 L 448.82342,401.37757"
         style="font-size:14.72555923px;font-style:normal;font-weight:normal;text-align:start;text-anchor:start;opacity:0.8;fill:url(#linearGradient3188);fill-opacity:1;stroke:none;stroke-width:1px;stroke-linecap:butt;stroke-linejoin:miter;stroke-opacity:1;font-family:Sofachrome" />
    </g>
    <g
       id="g2181">
      <path
         id="path2198"
         d="M 306.5895,421.17025 C 304.55759,421.15695 302.57574,422.64763 301.6813,425.01977 C 300.13148,428.71231 300.1755,433.15169 300.6467,437.21289 C 300.97839,440.00937 302.07561,442.89733 304.10578,444.17787 C 306.20864,445.3809 308.92354,445.06949 310.67595,443.06785 C 311.32831,442.47008 310.94885,441.32343 311.04773,440.44417 C 311.04773,437.95775 311.04773,435.4713 311.04773,432.98486 C 309.57102,432.98486 308.09432,432.98486 306.61762,432.98486 C 306.74078,433.57731 306.3682,434.82823 306.80811,435.00138 C 307.56961,434.87324 309.34803,434.90896 308.97327,436.45215 C 308.75849,437.25988 308.9741,438.15047 308.91976,438.99506 C 308.89593,440.00581 309.02523,441.14755 308.67959,442.06279 C 307.87693,443.01741 306.62365,442.98496 305.62725,442.65613 C 304.14792,441.91135 303.29676,439.8919 303.04459,437.96059 C 302.64309,435.10964 302.574,432.14134 302.8728,429.26914 C 303.15611,427.2282 303.70742,424.96017 305.09927,423.7576 C 306.75855,422.51761 308.94541,423.42109 310.10422,425.26723 C 310.22206,425.42361 310.64676,426.06574 310.51975,425.45694 C 310.30038,424.49914 310.87733,423.28464 310.26356,422.50227 C 309.16842,421.6006 307.89368,421.09599 306.5895,421.17025 z M 382.16369,422.42559 C 381.6789,422.24856 382.0454,422.96733 381.93563,423.27323 C 381.93563,424.64159 381.93563,426.00994 381.93563,427.37827 C 380.89639,427.6378 379.81177,427.24527 378.77082,427.46709 C 378.81537,428.02298 378.72908,428.62985 378.79893,429.15026 C 379.77932,429.22327 380.88665,428.74086 381.78253,429.39649 C 382.17898,429.94457 381.81737,430.73196 381.96062,431.38645 C 382.01964,434.98785 381.63421,438.67226 382.29803,442.20407 C 382.81312,443.92487 384.3642,444.373 385.64092,444.41603 C 386.54838,444.46527 387.49173,444.41929 388.3777,444.39583 C 388.37359,443.8199 388.42688,443.23065 388.37146,442.6642 C 387.17661,442.59116 385.78598,443.08173 384.73801,442.13947 C 383.58435,440.47929 384.05845,438.08678 383.99052,436.0687 C 383.972,433.74918 383.97094,431.42951 383.97572,429.1099 C 385.43364,429.09909 386.92499,429.13148 388.36208,429.09375 C 388.3186,428.55318 388.53793,427.92687 388.33396,427.4348 C 386.88225,427.4348 385.43054,427.4348 383.97884,427.4348 C 383.93839,425.78156 384.03348,424.12533 383.94448,422.47402 C 383.35069,422.4745 382.75765,422.40414 382.16369,422.42559 z M 319.06128,427.015 C 317.19254,426.98799 315.31792,428.36977 314.52495,430.59126 C 313.21921,433.80051 313.3577,437.78429 314.39999,441.08598 C 315.27443,443.61099 317.4358,444.97556 319.50804,444.8802 C 320.93866,444.8467 322.35635,444.39272 323.62884,443.59662 C 323.90443,443.25366 323.58042,442.69107 323.67883,442.24847 C 323.61109,441.95956 323.87298,440.93267 323.55699,441.20302 C 321.9449,442.50563 319.86719,443.5912 317.9928,442.59962 C 316.44542,441.69338 315.78363,439.38449 315.73402,437.31595 C 315.57598,436.80583 315.83798,436.14491 316.31823,436.33432 C 318.92693,436.3214 321.53576,436.36234 324.14434,436.31491 C 324.19988,433.64437 324.03028,430.66618 322.50414,428.65378 C 321.63488,427.4275 320.31661,426.95658 319.06128,427.015 z M 345.09828,427.015 C 343.20578,426.98653 341.34469,428.38886 340.54322,430.63163 C 339.27116,433.75381 339.41313,437.6061 340.34367,440.82837 C 341.09903,443.25689 343.05047,444.7916 345.04502,444.8633 C 346.61031,444.94873 348.19967,444.50639 349.60336,443.62487 C 349.98142,443.36232 349.61026,442.70066 349.71584,442.24039 C 349.66362,441.84631 349.95417,440.6944 349.42842,441.3322 C 347.81771,442.58307 345.73584,443.62576 343.90172,442.52294 C 342.3305,441.47289 341.71385,438.98644 341.76477,436.83158 C 341.89333,436.08986 342.57232,436.30425 342.98945,436.33381 C 345.38568,436.31987 347.78219,436.36724 350.17822,436.31087 C 350.24169,433.56998 350.04689,430.53882 348.44429,428.52866 C 347.57204,427.39497 346.30814,426.96113 345.09828,427.015 z M 360.8817,427.015 C 359.56467,427.02285 358.27276,427.91286 357.56381,429.35207 C 357.1332,428.86031 357.20849,428.11335 357.25138,427.45901 C 356.65898,427.25521 356.02668,427.53429 355.42373,427.3702 C 354.94051,427.30376 355.20283,428.01034 355.15777,428.36306 C 355.22334,433.70914 355.13474,439.06002 355.19255,444.4039 C 355.88934,444.37335 356.59793,444.57163 357.28575,444.35951 C 357.16557,443.14195 357.32542,441.90462 357.24058,440.6783 C 357.23005,437.72867 356.99984,434.62117 357.8075,431.81027 C 358.42264,429.74077 360.34428,428.57377 361.97203,429.32786 C 362.61647,429.59515 363.21434,430.07625 363.66847,430.7285 C 363.46854,429.81178 363.94447,428.72127 363.50914,427.89493 C 362.74593,427.23191 361.79793,426.97306 360.8817,427.015 z M 412.95258,427.015 C 411.60213,427.01672 410.28453,427.9675 409.57534,429.45703 C 409.21059,428.87908 409.28055,428.14114 409.32228,427.45495 C 408.776,427.24642 408.19039,427.55403 407.63522,427.36616 C 407.46754,427.35724 407.08239,427.38272 407.21657,427.72944 C 407.31096,433.28672 407.18858,438.84717 407.27281,444.4039 C 407.9665,444.37414 408.67232,444.57354 409.35665,444.35951 C 409.23063,443.18648 409.39999,441.99043 409.31292,440.80746 C 409.30445,437.81178 409.05713,434.66592 409.87838,431.80623 C 410.4937,429.74942 412.39505,428.59344 414.01482,429.31171 C 414.65578,429.50004 415.37057,430.26361 415.72063,430.66796 C 415.57516,429.75545 415.99407,428.71176 415.58316,427.89897 C 414.8124,427.23068 413.8684,426.97339 412.95258,427.015 z M 332.72961,427.01904 C 331.52337,426.95877 330.48231,427.83833 329.61792,428.81927 C 329.14056,428.97323 329.29853,428.16231 329.45546,427.86264 C 329.67903,427.37563 329.02331,427.38589 328.80875,427.37423 C 328.31524,427.4208 327.79748,427.41464 327.31851,427.46709 C 327.55833,428.65513 327.28106,429.88338 327.37788,431.09583 C 327.37788,435.53184 327.37788,439.96788 327.37788,444.4039 C 328.06996,444.37305 328.81246,444.57753 329.4742,444.35144 C 329.32823,443.08206 329.51762,441.7854 329.42734,440.50473 C 329.43309,437.47645 329.20398,434.35227 329.81786,431.40258 C 330.20918,429.752 331.69234,428.38324 333.01704,429.17851 C 334.01174,429.68988 334.23468,431.15925 334.38837,432.36978 C 334.66412,434.97127 334.31945,437.60449 334.47291,440.21813 C 334.47862,441.61318 334.42352,443.01063 334.49791,444.4039 C 335.16762,444.34835 335.98547,444.62825 336.56612,444.31108 C 336.40377,442.77247 336.55838,441.2006 336.51473,439.64904 C 336.51418,436.42668 336.70836,433.12643 336.12873,429.97369 C 335.80344,428.24116 334.52319,427.01822 333.15776,427.02468 C 333.01508,427.0206 332.8723,427.00958 332.72961,427.01904 z M 370.29801,427.03115 C 369.03453,427.13708 367.7737,427.48885 366.64583,428.25418 C 366.64583,429.06819 366.64583,429.8822 366.64583,430.69621 C 368.24621,429.27316 370.41634,428.2895 372.30374,429.33593 C 373.3505,430.08298 373.5672,431.75487 373.65027,433.15441 C 373.76389,433.92637 373.02449,434.0231 372.60678,433.89306 C 370.66868,433.91456 368.40295,433.71077 366.89888,435.5924 C 365.55008,437.19968 365.61816,439.93679 366.09909,442.03049 C 366.72868,444.12653 368.60472,445.13736 370.26019,444.84555 C 371.28339,444.80075 372.28104,444.28299 373.0223,443.38673 C 373.51345,443.1056 373.73086,443.97736 373.64402,444.37969 C 374.30223,444.50409 375.0638,444.46959 375.67162,444.34337 C 375.70021,443.6312 375.57691,442.91842 375.64027,442.20412 C 375.54534,438.27091 375.97358,434.24578 375.29672,430.38541 C 374.64643,427.97078 372.54447,426.93644 370.69791,427.015 C 370.56436,427.00971 370.43129,427.02316 370.29801,427.03115 z M 396.81926,427.01904 C 395.06148,426.95014 393.24422,428.2607 392.63285,430.44999 C 391.51885,433.6536 391.70322,437.41393 392.38603,440.73479 C 392.84397,442.87886 394.31556,444.5404 396.03078,444.80723 C 397.5991,445.04145 399.42516,444.73856 400.50268,443.08399 C 401.94245,441.1146 401.994,438.2636 402.08041,435.70543 C 402.10659,432.89954 401.60781,429.7081 399.76225,427.97163 C 398.90945,427.21823 397.84796,426.99699 396.81926,427.01904 z M 319.13938,428.88387 C 320.4051,428.83858 321.44262,430.12121 321.78245,431.63266 C 322.03924,432.59872 322.09518,433.63072 322.1136,434.64788 C 319.98916,434.6509 317.86471,434.65705 315.74026,434.65998 C 315.93356,432.75353 316.28928,430.56498 317.66476,429.49739 C 318.10005,429.1148 318.60794,428.86586 319.13938,428.88387 z M 396.97548,428.88387 C 398.26199,428.87029 399.2024,430.33398 399.4842,431.84256 C 400.20243,434.738 400.06986,437.99547 399.27488,440.84379 C 398.80481,442.50414 397.18415,443.5866 395.92887,442.6642 C 394.77263,441.91465 394.4345,440.11971 394.15433,438.62779 C 393.84069,436.2313 394.00845,433.72101 394.53236,431.40258 C 394.89619,430.07522 395.82894,428.87477 396.97548,428.88387 z M 345.03268,428.88791 C 346.22982,428.7719 347.30659,429.83497 347.70074,431.25323 C 348.06149,432.31101 348.12498,433.49896 348.16,434.64788 C 346.02825,434.65088 343.89652,434.65707 341.76477,434.65998 C 341.99657,432.79721 342.27958,430.63583 343.62654,429.56292 C 344.04094,429.18827 344.51825,428.90388 345.03268,428.88791 z M 372.0788,435.56415 C 372.67125,435.54543 373.67866,435.56038 373.70651,436.59343 C 373.40974,438.24239 373.49295,440.12682 372.53772,441.45689 C 371.85779,442.65167 370.64975,443.34531 369.51383,442.93465 C 367.92139,442.25881 367.40926,439.54698 368.08608,437.71556 C 368.54569,436.07577 369.98738,435.56244 371.21652,435.58029 C 371.50395,435.57507 371.79137,435.56925 372.0788,435.56415 z "
         style="font-size:27.57764244px;font-style:normal;font-weight:normal;text-align:start;text-anchor:start;opacity:0.5;fill:#000000;fill-opacity:1;stroke:none;stroke-width:0.5;stroke-linecap:butt;stroke-linejoin:miter;stroke-miterlimit:4;stroke-opacity:1;filter:url(#filter3828);font-family:Bitstream Vera Sans Mono"
         transform="matrix(1.3097669,0,0,0.760437,-389.0763,-281.26796)" />
      <path
         id="path2200"
         d="M 12.17472,38.0051 C 9.51339,37.99567 6.91763,39.05254 5.74612,40.73433 C 3.71621,43.35226 3.77388,46.49967 4.39104,49.37897 C 4.82547,51.36162 6.26257,53.40911 8.92162,54.31699 C 11.67588,55.16989 15.23176,54.94912 17.52701,53.53 C 18.38145,53.1062 17.88445,52.29325 18.01396,51.66987 C 18.01396,49.90707 18.01396,48.14422 18.01396,46.38139 C 16.07982,46.38139 14.14568,46.38139 12.21155,46.38139 C 12.37286,46.80143 11.88486,47.6883 12.46105,47.81106 C 13.45843,47.72021 15.78774,47.74554 15.2969,48.83963 C 15.01559,49.41229 15.29799,50.0437 15.22681,50.64249 C 15.19561,51.35908 15.36496,52.16855 14.91225,52.81744 C 13.86095,53.49425 12.21944,53.47123 10.91439,53.23809 C 8.97682,52.71007 7.86199,51.27832 7.53171,49.90907 C 7.00584,47.88782 6.91535,45.78336 7.30671,43.74703 C 7.67778,42.30006 8.39986,40.69207 10.22286,39.83948 C 12.39613,38.96036 15.26041,39.6009 16.77818,40.90977 C 16.93252,41.02065 17.48878,41.4759 17.32242,41.04428 C 17.0351,40.36522 17.79078,39.50416 16.98687,38.94949 C 15.5525,38.31022 13.88289,37.95246 12.17472,38.0051 z M 111.15929,38.89512 C 110.52433,38.76961 111.00435,39.2792 110.86059,39.49608 C 110.86059,40.46621 110.86059,41.43634 110.86059,42.40646 C 109.49943,42.59045 108.07882,42.31216 106.71542,42.46943 C 106.77377,42.86354 106.66076,43.29379 106.75224,43.66275 C 108.03632,43.71451 109.48667,43.37249 110.66006,43.83733 C 111.17931,44.22591 110.70569,44.78414 110.89332,45.24816 C 110.97062,47.80148 110.4658,50.41364 111.33524,52.9176 C 112.00989,54.13761 114.04144,54.45532 115.71366,54.48582 C 116.90221,54.52073 118.13778,54.48813 119.29819,54.47151 C 119.29281,54.06318 119.36261,53.64542 119.29003,53.24381 C 117.72505,53.19203 115.90364,53.53984 114.53105,52.87182 C 113.02003,51.69477 113.64098,49.99854 113.55201,48.56776 C 113.52775,46.92328 113.52637,45.27869 113.53263,43.63413 C 115.44216,43.62647 117.39549,43.64942 119.27774,43.62268 C 119.22079,43.23944 119.50806,42.7954 119.2409,42.44655 C 117.3395,42.44655 115.43811,42.44655 113.53672,42.44655 C 113.48373,41.27442 113.60828,40.10019 113.49171,38.92945 C 112.71398,38.9298 111.93724,38.8799 111.15929,38.89512 z M 28.50985,42.14891 C 26.06222,42.12977 23.60691,43.1094 22.5683,44.6844 C 20.85809,46.95967 21.03948,49.78406 22.40464,52.1249 C 23.54995,53.91506 26.38084,54.88253 29.095,54.81492 C 30.96877,54.79117 32.82562,54.46931 34.49228,53.90488 C 34.85324,53.66174 34.42886,53.26287 34.55776,52.94909 C 34.46903,52.74425 34.81205,52.01621 34.39818,52.20788 C 32.28671,53.1314 29.5654,53.90105 27.11038,53.19805 C 25.08367,52.55553 24.21688,50.91858 24.15191,49.45204 C 23.94491,49.09038 24.28807,48.6218 24.91709,48.75609 C 28.33388,48.74692 31.75083,48.77595 35.16746,48.74232 C 35.24021,46.84898 35.01807,44.73751 33.01919,43.31076 C 31.88065,42.44136 30.15403,42.10748 28.50985,42.14891 z M 62.61224,42.14891 C 60.13351,42.12872 57.69592,43.12294 56.64618,44.71301 C 54.98008,46.92656 55.16602,49.65776 56.38481,51.94227 C 57.37416,53.66404 59.93009,54.75211 62.54248,54.80293 C 64.59265,54.8635 66.67434,54.54988 68.51285,53.9249 C 69.00802,53.73877 68.52189,53.26968 68.66017,52.94337 C 68.59178,52.66396 68.97232,51.84727 68.28371,52.29947 C 66.17406,53.18631 63.44729,53.92555 61.04503,53.14366 C 58.9871,52.39921 58.17943,50.63639 58.24612,49.10864 C 58.41451,48.58279 59.30382,48.73477 59.85017,48.75572 C 62.98867,48.74584 66.12754,48.77942 69.26578,48.73946 C 69.34891,46.79622 69.09377,44.64722 66.99474,43.22205 C 65.85229,42.41829 64.19687,42.11072 62.61224,42.14891 z M 83.28485,42.14891 C 81.55984,42.15447 79.86775,42.78546 78.93918,43.80583 C 78.37518,43.45718 78.47379,42.92761 78.52997,42.46371 C 77.75406,42.3192 76.9259,42.51706 76.13617,42.40074 C 75.50327,42.35363 75.84685,42.85457 75.78783,43.10465 C 75.87372,46.8949 75.75766,50.68855 75.83339,54.47723 C 76.74602,54.45557 77.6741,54.59615 78.57499,54.44576 C 78.41758,53.58254 78.62695,52.7053 78.51583,51.83587 C 78.50204,49.74465 78.20051,47.54151 79.25835,45.54864 C 80.06404,44.08141 82.58095,43.25404 84.71292,43.78865 C 85.55699,43.97816 86.34006,44.31925 86.93487,44.78168 C 86.673,44.13176 87.29636,43.35861 86.72618,42.77275 C 85.72655,42.30269 84.48489,42.11917 83.28485,42.14891 z M 151.48556,42.14891 C 149.71678,42.15013 147.99104,42.8242 147.06216,43.88025 C 146.58443,43.4705 146.67605,42.94731 146.73071,42.46081 C 146.01522,42.31297 145.2482,42.53106 144.52105,42.39788 C 144.30144,42.39154 143.79698,42.4096 143.97272,42.65542 C 144.09636,46.59541 143.93607,50.53764 144.04639,54.47723 C 144.95495,54.45612 145.87942,54.59751 146.77573,54.44576 C 146.61068,53.61411 146.83249,52.76614 146.71846,51.92744 C 146.70736,49.80357 146.38343,47.57323 147.45907,45.54576 C 148.265,44.08755 150.75532,43.26798 152.87685,43.77722 C 153.71635,43.91074 154.65256,44.45209 155.11106,44.73877 C 154.92053,44.09182 155.4692,43.35188 154.93101,42.77562 C 153.92149,42.30182 152.68507,42.1194 151.48556,42.14891 z M 46.41217,42.15177 C 44.83228,42.10904 43.46873,42.73262 42.33658,43.42808 C 41.71135,43.53725 41.91825,42.96233 42.12379,42.74987 C 42.41662,42.40458 41.55778,42.41186 41.27676,42.4036 C 40.63038,42.43662 39.95223,42.43223 39.32489,42.46943 C 39.63899,43.31172 39.27584,44.18252 39.40265,45.04211 C 39.40265,48.18714 39.40265,51.3322 39.40265,54.47723 C 40.30911,54.45536 41.28161,54.60033 42.14834,54.44004 C 41.95715,53.54008 42.20521,52.62077 42.08697,51.71281 C 42.0945,49.56583 41.79442,47.35086 42.59846,45.2596 C 43.11099,44.08936 45.05358,43.11895 46.78864,43.68279 C 48.09146,44.04532 48.38346,45.08708 48.58475,45.94532 C 48.94592,47.78971 48.49449,49.65661 48.69548,51.50962 C 48.70297,52.49868 48.6308,53.48944 48.72823,54.47723 C 49.6054,54.43785 50.67659,54.63628 51.4371,54.41141 C 51.22446,53.32058 51.42697,52.20617 51.3698,51.10615 C 51.36907,48.82157 51.6234,46.48177 50.86423,44.24655 C 50.43817,43.01823 48.76134,42.15118 46.97295,42.15577 C 46.78607,42.15287 46.59906,42.14506 46.41217,42.15177 z M 95.61801,42.16035 C 93.96316,42.23545 92.31176,42.48485 90.83452,43.02745 C 90.83452,43.60457 90.83452,44.18168 90.83452,44.75881 C 92.93064,43.74988 95.773,43.05251 98.24506,43.79439 C 99.61607,44.32403 99.89989,45.50937 100.0087,46.5016 C 100.15751,47.04891 99.18907,47.11748 98.64197,47.02529 C 96.1035,47.04052 93.13593,46.89605 91.16595,48.23009 C 89.39933,49.36961 89.4885,51.31016 90.11841,52.79455 C 90.94303,54.28059 93.40021,54.99724 95.56848,54.79037 C 96.90863,54.75859 98.21533,54.39151 99.1862,53.75609 C 99.82949,53.55678 100.11425,54.17483 100.00051,54.46007 C 100.86262,54.54826 101.86009,54.5238 102.65619,54.43432 C 102.69364,53.9294 102.53215,53.42407 102.61513,52.91764 C 102.4908,50.12908 103.05169,47.27536 102.16516,44.53844 C 101.31344,42.82653 98.56036,42.0932 96.14179,42.14891 C 95.96687,42.14515 95.79258,42.15469 95.61801,42.16035 z M 130.35467,42.15177 C 128.05239,42.10292 125.6722,43.03207 124.87145,44.58425 C 123.41237,46.85552 123.65385,49.5215 124.54817,51.87591 C 125.14797,53.396 127.0754,54.57401 129.32194,54.76318 C 131.37608,54.92924 133.76779,54.7145 135.17909,53.54145 C 137.06485,52.14519 137.13237,50.12389 137.24555,48.31022 C 137.27984,46.32092 136.62655,44.05825 134.20931,42.82714 C 133.09234,42.29299 131.70203,42.13614 130.35467,42.15177 z M 28.61214,43.47389 C 30.26993,43.44177 31.62885,44.35112 32.07394,45.42271 C 32.41028,46.10763 32.48355,46.83929 32.50767,47.56044 C 29.72515,47.56257 26.94261,47.56694 24.16008,47.56902 C 24.41325,46.2174 24.87917,44.66577 26.68072,43.90888 C 27.25085,43.63762 27.91607,43.46112 28.61214,43.47389 z M 130.55928,43.47389 C 132.24431,43.46427 133.47603,44.50198 133.84512,45.57154 C 134.78584,47.62432 134.6122,49.9338 133.57096,51.95318 C 132.95528,53.13034 130.83259,53.89777 129.18846,53.24381 C 127.67406,52.71241 127.23119,51.43984 126.86424,50.3821 C 126.45344,48.68305 126.67317,46.90331 127.35936,45.2596 C 127.8359,44.31852 129.05759,43.46743 130.55928,43.47389 z M 62.52632,43.47675 C 64.0943,43.3945 65.50462,44.1482 66.02086,45.15371 C 66.49336,45.90365 66.57652,46.74587 66.62239,47.56044 C 63.83028,47.56257 61.03822,47.56696 58.24612,47.56902 C 58.54972,46.24836 58.9204,44.71599 60.68461,43.95532 C 61.22738,43.6897 61.85254,43.48808 62.52632,43.47675 z M 97.95044,48.21005 C 98.72641,48.19678 100.04588,48.20738 100.08236,48.93979 C 99.69365,50.10886 99.80264,51.44488 98.55151,52.38788 C 97.66097,53.23494 96.07871,53.72672 94.59092,53.43557 C 92.5052,52.95641 91.83442,51.03379 92.7209,49.73535 C 93.32288,48.57278 95.21116,48.20883 96.82105,48.22149 C 97.19752,48.21779 97.57397,48.21367 97.95044,48.21005 z "
         style="font-size:27.57764244px;font-style:normal;font-weight:normal;text-align:start;text-anchor:start;fill:#ffffff;fill-opacity:1;stroke:none;stroke-width:0.5;stroke-linecap:butt;stroke-linejoin:miter;stroke-miterlimit:4;stroke-opacity:1;font-family:Bitstream Vera Sans Mono" />
    </g>
    <path
       style="font-size:83.31455231px;font-style:normal;font-weight:bold;text-align:start;text-anchor:start;fill:#000000;fill-opacity:1;stroke:none;stroke-width:1px;stroke-linecap:butt;stroke-linejoin:miter;stroke-opacity:1;font-family:Steve"
       d="M 31.57022,2.52055 C 31.05403,4.60814 31.98259,6.73075 32.93274,8.70427 C 34.39264,10.53082 28.40039,9.90445 29.52754,11.96009 C 30.38161,13.52844 28.78023,16.82575 25.60646,15.377 C 24.64539,13.97977 26.69826,12.30669 25.7136,11.0762 C 22.62826,10.10917 23.93573,13.24224 23.03002,14.2152 C 21.76032,14.95134 22.33498,12.68109 20.93111,12.48622 C 18.8229,10.62041 14.3789,11.84843 15.13758,14.09113 C 14.91931,14.972 15.87081,16.65315 15.28931,17.0254 C 12.32962,15.8605 8.94517,15.23708 5.85376,14.25201 C 3.97327,13.41219 3.20136,9.83763 6.56704,10.51169 C 10.09075,10.70585 7.5533,7.84193 5.12339,8.82476 C 2.30075,9.42453 2.32789,11.61173 2.71826,13.15697 C 3.07126,15.60431 7.15425,16.25211 10.17209,16.97189 C 11.74601,17.34794 14.90831,18.18655 11.9051,18.77081 C 9.55167,19.55884 6.79805,19.84659 4.16566,19.60407 C 5.38515,18.70036 4.29362,17.4341 2.81879,18.63109 C 0.43195,20.23026 3.77589,21.71982 6.30304,20.96523 C 9.74418,20.72083 13.18312,19.9601 15.80399,18.49156 C 16.55689,19.69537 16.74109,22.34387 19.62207,21.96287 C 20.62442,20.20787 16.3359,17.89909 18.76718,16.71161 C 20.74919,16.47567 22.14983,16.23354 24.08947,16.29198 C 24.98739,18.62469 28.38857,16.3281 30.35395,16.02445 C 32.75774,17.79538 34.05114,14.9595 35.84018,14.4447 C 36.03778,15.92677 39.15271,16.05942 38.67635,14.40602 C 38.22272,14.17046 36.21789,13.22612 37.94725,13.86571 C 39.65077,14.89532 42.16309,14.69286 44.32136,14.96811 C 46.76602,15.55457 50.38719,13.4937 47.19961,12.51018 C 45.36282,12.5079 44.63019,14.01964 42.44261,13.47171 C 41.24506,13.42332 38.76937,12.72005 41.24157,12.48467 C 43.39777,12.27846 45.43499,10.4054 46.42549,10.20661 C 47.69306,10.95691 50.71936,8.92035 50.21937,11.03295 C 50.62631,12.56169 51.66861,14.41343 49.93779,15.76444 C 48.67537,16.7744 44.66218,14.81978 45.22285,17.02477 C 47.78041,18.22813 52.00981,17.15646 52.41857,15.1265 C 53.16633,12.88027 51.81703,10.65085 51.32993,8.44248 C 49.63114,6.6973 51.9493,5.54914 53.1528,4.13857 C 54.90873,3.21904 52.22063,0.8044 51.54633,2.71813 C 51.70944,3.78338 51.52254,5.50376 50.36504,5.9772 C 47.60866,4.48049 49.49241,7.92033 48.75919,8.75129 C 46.31295,10.01427 48.02523,4.64216 45.14935,6.53605 C 45.96003,7.63137 44.86782,8.00583 43.44165,7.49702 C 40.12273,7.56965 37.16737,9.40028 36.82193,11.4668 C 35.40226,11.88392 35.71805,9.44623 35.37586,8.71168 C 34.85423,6.5228 34.10917,4.25574 32.35246,2.34244 C 32.07131,2.20589 31.69862,2.34189 31.57022,2.52055 z M 22.73054,6.60026 C 20.83178,8.31833 25.43238,9.32164 24.14246,6.95187 C 23.93592,6.59409 23.27648,6.37754 22.73054,6.60026 z M 56.49958,5.24857 C 52.91477,5.66614 54.61565,9.23602 57.7045,9.4143 C 59.44402,9.92917 63.24856,9.66295 63.7872,10.3743 C 62.44072,10.97593 58.56168,11.74914 58.26496,10.70908 C 59.10033,8.74961 53.9847,10.85676 55.38322,12.02887 C 58.05011,13.07963 61.48201,12.14544 64.23439,11.65131 C 66.86863,11.12297 66.48669,8.76316 63.54599,8.87573 C 61.55029,8.34526 56.11471,8.9144 56.98826,6.87493 C 58.27365,6.76403 61.00255,5.7851 58.51617,5.13017 C 57.85806,5.00762 57.09686,5.01505 56.49958,5.24857 z M 41.82726,9.21976 C 43.52851,8.35176 45.35264,10.11082 42.94547,10.43654 C 41.90928,10.95084 37.76981,12.3353 39.40048,10.46899 C 39.93431,9.88882 40.7707,9.38091 41.82726,9.21976 z M 17.6987,13.03717 C 20.63535,12.68302 21.82897,16.01156 18.10621,15.39243 C 16.97733,15.00688 16.53576,13.51752 17.6987,13.03717 z M 32.22885,11.42802 C 35.15107,10.86619 34.27251,13.55591 33.30398,14.46142 C 31.06003,16.55955 31.27039,12.98741 31.43137,11.98086 C 31.57136,11.74378 31.83502,11.51404 32.22885,11.42802 z "
       id="text3417" />
  </g>
</svg>
